<svg xmlns="http://www.w3.org/2000/svg" width="21.879" height="21.878" viewBox="0 0 21.879 21.878">
  <g id="Logo_Pixel" data-name="Logo Pixel" transform="translate(-1.28 -1.561)">
    <g id="Group_Copy" data-name="Group Copy" transform="translate(1.405 1.437)">
      <path id="Combined_Shape" data-name="Combined Shape" d="M9.45,21.829A6.455,6.455,0,0,1,6.6,19.853L2.024,15.276A6.444,6.444,0,0,1,.049,12.426,4.212,4.212,0,0,1,.076,9.942a6.86,6.86,0,0,1,2.04-2.9L6.8,2.365A6.845,6.845,0,0,1,9.694.325a4.337,4.337,0,0,1,1.293-.2A4.25,4.25,0,0,1,12.179.3a6.453,6.453,0,0,1,2.849,1.975L19.6,6.849A6.437,6.437,0,0,1,21.58,9.7a4.212,4.212,0,0,1-.028,2.484,6.844,6.844,0,0,1-2.04,2.9L14.83,19.76a6.844,6.844,0,0,1-2.9,2.04,4.326,4.326,0,0,1-1.292.2A4.256,4.256,0,0,1,9.45,21.829Zm1.33-9.962h0l2.924,1.508a2.466,2.466,0,0,0,1.126.274,2.554,2.554,0,0,0,2.515-2.586,2.654,2.654,0,0,0-.265-1.155,2.5,2.5,0,0,0-2.252-1.432,2.437,2.437,0,0,0-1.124.274L10.78,10.258,10,9.855a.683.683,0,0,0-.316-.077.7.7,0,0,0-.627.4.736.736,0,0,0,.183.88L7.222,12.092a1.074,1.074,0,0,1-.494.121,1.131,1.131,0,0,1-1.11-1.149,1.183,1.183,0,0,1,.118-.516,1.1,1.1,0,0,1,.992-.634,1.069,1.069,0,0,1,.494.121.678.678,0,0,0,.315.076.7.7,0,0,0,.628-.4.727.727,0,0,0-.311-.965,2.437,2.437,0,0,0-1.124-.274A2.5,2.5,0,0,0,4.477,9.908a2.666,2.666,0,0,0-.265,1.155,2.554,2.554,0,0,0,2.515,2.586,2.466,2.466,0,0,0,1.126-.274l2.926-1.508Zm3.557.225-2-1.029,2-1.029a1.092,1.092,0,0,1,1.486.513,1.17,1.17,0,0,1,.118.516,1.13,1.13,0,0,1-1.11,1.149A1.08,1.08,0,0,1,14.337,12.092Z" transform="translate(0.001 0.001)" fill="#2e3a3c"/>
    </g>
  </g>
</svg>
