<svg id="twotone-folder_shared-24px" xmlns="http://www.w3.org/2000/svg" width="19" height="19" viewBox="0 0 19 19">
  <g id="Bounding_Boxes">
    <path id="Shape" d="M0,0H19V19H0Z" fill="none"/>
  </g>
  <g id="Duotone" transform="translate(1.583 3.167)">
    <g id="Group">
      <path id="Shape-2" data-name="Shape" d="M12.667,9.5H0V0H4.093L5.209,1.116l.467.467h6.99V9.5ZM8.708,6.333c-1.105,0-3.167.544-3.167,1.583v.792h6.333V7.916C11.875,6.877,9.813,6.333,8.708,6.333Zm0-3.958a1.583,1.583,0,1,0,1.583,1.583A1.585,1.585,0,0,0,8.708,2.375Z" transform="translate(1.583 1.583)" opacity="0.3"/>
      <path id="Shape-3" data-name="Shape" d="M14.25,12.667H1.583A1.585,1.585,0,0,1,0,11.083l.008-9.5A1.581,1.581,0,0,1,1.583,0h4.75L7.916,1.583H14.25a1.586,1.586,0,0,1,1.584,1.584v7.916A1.585,1.585,0,0,1,14.25,12.667ZM1.583,1.583v9.5H14.25V3.167H7.259L5.676,1.583Z"/>
      <path id="Shape-4" data-name="Shape" d="M1.583,3.167A1.583,1.583,0,1,0,0,1.583,1.588,1.588,0,0,0,1.583,3.167Z" transform="translate(8.708 3.958)"/>
      <path id="Shape-5" data-name="Shape" d="M0,1.583v.792H6.333V1.583C6.333.53,4.22,0,3.167,0S0,.53,0,1.583Z" transform="translate(7.125 7.917)"/>
    </g>
  </g>
</svg>
