<svg id="twotone-work-24px" xmlns="http://www.w3.org/2000/svg" width="19" height="19" viewBox="0 0 19 19">
  <g id="Bounding_Boxes">
    <path id="Shape" d="M0,0H19V19H0Z" fill="none"/>
  </g>
  <g id="Duotone" transform="translate(1.583 1.583)">
    <g id="Group">
      <rect id="Rectangle-path" width="12.667" height="8.708" transform="translate(1.583 4.75)" opacity="0.3"/>
      <path id="Shape-2" data-name="Shape" d="M14.25,15.042H1.583A1.585,1.585,0,0,1,0,13.459L.008,4.75A1.562,1.562,0,0,1,1.583,3.167H4.75V1.583A1.585,1.585,0,0,1,6.333,0H9.5a1.585,1.585,0,0,1,1.583,1.583V3.167H14.25A1.585,1.585,0,0,1,15.834,4.75v8.708A1.585,1.585,0,0,1,14.25,15.042ZM1.583,4.75v8.708H14.25V4.75Zm4.75-3.167V3.167H9.5V1.583Z"/>
    </g>
  </g>
</svg>
