<svg id="twotone-cloud_done-24px" xmlns="http://www.w3.org/2000/svg" width="17" height="17" viewBox="0 0 17 17">
  <g id="Bounding_Boxes">
    <path id="Shape" d="M0,0H17V17H0Z" fill="none"/>
  </g>
  <g id="Duotone" transform="translate(0 2.833)">
    <g id="Group">
      <path id="Shape-2" data-name="Shape" d="M12.042,8.5H2.833a2.835,2.835,0,0,1-.319-5.652l.758-.078L3.627,2.1a3.889,3.889,0,0,1,7.268,1.041L11.107,4.2l1.084.078A2.113,2.113,0,0,1,12.042,8.5ZM4.186,4.314h0l-1,1L5.666,7.791,9.923,3.534l-1-1L5.666,5.794,4.186,4.314Z" transform="translate(1.417 1.417)" opacity="0.3"/>
      <path id="Shape-3" data-name="Shape" d="M13.459,11.334H4.25a4.248,4.248,0,0,1-.46-8.472,5.307,5.307,0,0,1,9.916,1.417,3.54,3.54,0,0,1,2.338,1.1A3.5,3.5,0,0,1,17,7.791,3.546,3.546,0,0,1,13.459,11.334ZM8.5,1.417a3.875,3.875,0,0,0-3.449,2.1L4.7,4.193l-.758.078A2.831,2.831,0,0,0,4.25,9.917h9.209a2.128,2.128,0,0,0,2.125-2.126,2.105,2.105,0,0,0-1.969-2.1l-1.084-.078-.212-1.062A3.9,3.9,0,0,0,8.5,1.417Z"/>
      <path id="Shape-4" data-name="Shape" d="M2.479,3.258,1,1.778l-1,1L2.479,5.256,6.736,1l-1-1Z" transform="translate(4.604 3.953)"/>
    </g>
  </g>
</svg>
