<svg id="twotone-group-24px" xmlns="http://www.w3.org/2000/svg" width="19" height="19" viewBox="0 0 19 19">
  <g id="Bounding_Boxes">
    <path id="Shape" d="M0,0H19V19H0Z" fill="none"/>
  </g>
  <g id="Duotone" transform="translate(1.583 3.958)">
    <g id="Group">
      <circle id="Oval" cx="1.188" cy="1.188" r="1.188" transform="translate(4.354 1.583)" opacity="0.3"/>
      <path id="Shape-2" data-name="Shape" d="M0,.99H7.378A7.633,7.633,0,0,0,3.689,0,7.633,7.633,0,0,0,0,.99Z" transform="translate(1.852 8.51)" opacity="0.3"/>
      <path id="Shape-3" data-name="Shape" d="M2.771,5.541a2.771,2.771,0,1,1,2.77-2.77A2.774,2.774,0,0,1,2.771,5.541Zm0-3.958A1.188,1.188,0,1,0,3.958,2.771,1.189,1.189,0,0,0,2.771,1.583Z" transform="translate(2.771)"/>
      <path id="Shape-4" data-name="Shape" d="M11.083,4.156H0V2.771C0,.952,3.607,0,5.541,0s5.542.952,5.542,2.771V4.155ZM5.541,1.583a7.609,7.609,0,0,0-3.689.99H9.23A7.6,7.6,0,0,0,5.541,1.583Z" transform="translate(0 6.927)"/>
      <path id="Shape-5" data-name="Shape" d="M0,0A3.319,3.319,0,0,1,1.552,2.723V4.109H4.718V2.723C4.718,1.124,1.947.214,0,0Z" transform="translate(11.115 6.975)"/>
      <path id="Shape-6" data-name="Shape" d="M1.188,5.542A2.771,2.771,0,0,0,1.188,0,2.728,2.728,0,0,0,0,.277,4.307,4.307,0,0,1,.792,2.771,4.307,4.307,0,0,1,0,5.265,2.728,2.728,0,0,0,1.188,5.542Z" transform="translate(9.104)"/>
    </g>
  </g>
</svg>
