<svg id="twotone-memory-24px" xmlns="http://www.w3.org/2000/svg" width="21" height="21" viewBox="0 0 21 21">
  <g id="Bounding_Boxes">
    <path id="Shape" d="M0,0H21V21H0Z" fill="none"/>
  </g>
  <g id="Duotone" transform="translate(2.625 2.625)">
    <g id="Group">
      <path id="Shape-2" data-name="Shape" d="M8.75,8.75H0V0H8.75V8.749Zm-7-7V7H7V1.75Z" transform="translate(3.5 3.5)" opacity="0.3"/>
      <path id="Shape-3" data-name="Shape" d="M7,15.751H5.25V14H3.5a1.752,1.752,0,0,1-1.75-1.75V10.5H0V8.75H1.75V7H0V5.25H1.75V3.5A1.752,1.752,0,0,1,3.5,1.75H5.25V0H7V1.75H8.75V0H10.5V1.75h1.75A1.752,1.752,0,0,1,14,3.5V5.25h1.75V7H14V8.75h1.75V10.5H14v1.75A1.752,1.752,0,0,1,12.25,14H10.5v1.749H8.75V14H7v1.75ZM3.5,3.5v8.75h8.75V3.5Z"/>
      <path id="Shape-4" data-name="Shape" d="M5.25,5.25H0V0H5.25V5.249Zm-3.5-3.5V3.5H3.5V1.75Z" transform="translate(5.25 5.25)"/>
    </g>
  </g>
</svg>
