<svg id="twotone-settings-24px" xmlns="http://www.w3.org/2000/svg" width="19" height="19" viewBox="0 0 19 19">
  <g id="Bounding_Boxes">
    <path id="Shape" d="M0,0H19V19H0Z" fill="none"/>
  </g>
  <g id="Duotone" transform="translate(1.583 1.583)">
    <g id="Group">
      <path id="Shape-2" data-name="Shape" d="M6.31,12.667h-1.1l-.15-1.076L4.932,10.7l-.839-.34a4.05,4.05,0,0,1-.974-.563L2.4,9.238,1.56,9.58l-1.005.4L0,9.025.855,8.36l.7-.554-.111-.895c-.024-.239-.04-.419-.04-.578s.015-.339.04-.578l.111-.895-.7-.554L0,3.641l.554-.958L1.56,3.1l.831.333L3.1,2.89a4.578,4.578,0,0,1,.99-.578l.839-.349.127-.895L5.209,0H6.317l.151,1.076.126.895.84.341a4.028,4.028,0,0,1,.974.562l.72.554.84-.34,1.005-.4.554.958-.87.665-.7.554.111.895c.024.243.04.414.04.578a4.278,4.278,0,0,1-.04.578l-.111.895.7.554.855.665-.554.958-1.005-.4-.823-.333-.713.538a4.577,4.577,0,0,1-.989.578l-.839.341L6.46,11.6l-.15,1.067Zm-.546-9.5A3.167,3.167,0,1,0,8.93,6.333,3.17,3.17,0,0,0,5.764,3.167Z" transform="translate(2.153 1.583)" opacity="0.3"/>
      <path id="Shape-3" data-name="Shape" d="M9.285,15.834H6.119a.386.386,0,0,1-.388-.333l-.3-2.1a5.748,5.748,0,0,1-1.338-.776l-1.971.792a.384.384,0,0,1-.135.023.4.4,0,0,1-.348-.2L.055,10.506A.4.4,0,0,1,.15,10l1.67-1.307a6.04,6.04,0,0,1-.056-.776,6.061,6.061,0,0,1,.056-.776L.15,5.835a.388.388,0,0,1-.1-.507l1.583-2.74a.4.4,0,0,1,.34-.2.445.445,0,0,1,.143.024l1.971.791A6.054,6.054,0,0,1,5.431,2.43l.3-2.1A.386.386,0,0,1,6.119,0H9.285a.386.386,0,0,1,.388.332l.3,2.1a5.847,5.847,0,0,1,1.337.776l1.972-.791a.358.358,0,0,1,.134-.024.4.4,0,0,1,.348.2l1.583,2.74a.4.4,0,0,1-.095.507l-1.67,1.306a6.25,6.25,0,0,1,.055.776,6.267,6.267,0,0,1-.055.776L15.255,10a.4.4,0,0,1,.095.507l-1.583,2.739a.39.39,0,0,1-.34.2.458.458,0,0,1-.142-.023l-1.972-.792a6.039,6.039,0,0,1-1.337.776l-.3,2.1A.386.386,0,0,1,9.285,15.834Zm-4.947-5h0l.72.554a4.538,4.538,0,0,0,.974.563l.84.34L7,13.181l.15,1.068H8.257l.158-1.068.127-.895.839-.34a4.649,4.649,0,0,0,.99-.579l.712-.538.824.333,1.005.4.554-.958-.855-.665-.7-.554.111-.895a5.643,5.643,0,0,0,.04-.578,4.279,4.279,0,0,0-.04-.578l-.111-.895.7-.554.847-.672L12.9,4.259l-1.005.4L11.059,5l-.721-.553a4.457,4.457,0,0,0-.974-.563l-.839-.34L8.4,2.652l-.15-1.069h-1.1L6.99,2.652l-.127.895-.84.34a4.669,4.669,0,0,0-.989.578L4.322,5,3.5,4.671l-1.005-.4-.553.958.855.664.7.554-.111.895c-.022.228-.04.415-.04.578s.016.343.04.586L3.5,9.4l-.7.554-.855.665.553.958,1.005-.4.839-.341Z" transform="translate(0.214)"/>
      <path id="Shape-4" data-name="Shape" d="M3.167,6.333A3.167,3.167,0,1,1,6.333,3.167,3.17,3.17,0,0,1,3.167,6.333Zm0-4.75A1.584,1.584,0,1,0,4.75,3.167,1.586,1.586,0,0,0,3.167,1.583Z" transform="translate(4.75 4.75)"/>
    </g>
  </g>
</svg>
