<svg id="twotone-dvr-24px" xmlns="http://www.w3.org/2000/svg" width="17" height="17" viewBox="0 0 17 17">
  <g id="Bounding_Boxes">
    <path id="Shape" d="M0,0H17V17H0Z" fill="none"/>
  </g>
  <g id="Duotone" transform="translate(0.708 2.125)">
    <g id="Group">
      <path id="Shape-2" data-name="Shape" d="M12.75,8.5H0V0H12.75V8.5ZM3.542,4.958V6.375h7.792V4.958Zm-2.125,0V6.375H2.833V4.958ZM3.542,2.125V3.542h7.792V2.125Zm-2.125,0V3.542H2.833V2.125Z" transform="translate(1.417 1.417)" opacity="0.3"/>
      <rect id="Rectangle-path" width="7.792" height="1.417" transform="translate(4.958 6.375)"/>
      <rect id="Rectangle-path-2" data-name="Rectangle-path" width="7.792" height="1.417" transform="translate(4.958 3.542)"/>
      <path id="Shape-3" data-name="Shape" d="M10.625,12.75H4.958V11.334H1.417A1.418,1.418,0,0,1,0,9.917v-8.5A1.418,1.418,0,0,1,1.417,0h12.75a1.418,1.418,0,0,1,1.417,1.417v8.5a1.418,1.418,0,0,1-1.417,1.417H10.625v1.416ZM1.417,1.417v8.5h12.75v-8.5Z"/>
      <rect id="Rectangle-path-3" data-name="Rectangle-path" width="1.417" height="1.417" transform="translate(2.833 6.375)"/>
      <rect id="Rectangle-path-4" data-name="Rectangle-path" width="1.417" height="1.417" transform="translate(2.833 3.542)"/>
    </g>
  </g>
</svg>
